<svg width="326" height="138" viewBox="0 0 326 138" fill="none" xmlns="http://www.w3.org/2000/svg">
<path fill-rule="evenodd" clip-rule="evenodd" d="M14.5128 136.321C17.2702 137.468 20.2334 138.039 23.2198 137.997C26.2827 138.043 29.3224 137.461 32.1512 136.286C34.98 135.111 37.5377 133.368 39.6663 131.166C41.8653 129.036 43.6043 126.478 44.776 123.65C45.9477 120.822 46.5272 117.784 46.4787 114.724V82.8051H80.1978V111.973L90.5179 104.679V0.804047C83.6378 7.78038 76.9864 13.2845 70.5638 17.3163C64.1411 21.3481 58.3369 24.7639 53.1511 27.5638C48.6233 29.89 44.4524 32.853 40.7655 36.3624C37.6942 39.4422 36.1585 43.642 36.1585 48.9618L36.0185 115.277C36.0347 116.914 35.7199 118.538 35.0931 120.051C34.4663 121.564 33.5403 122.935 32.3707 124.082C31.2286 125.28 29.8508 126.227 28.324 126.866C26.7972 127.504 25.1546 127.82 23.4999 127.792C21.8776 127.837 20.2645 127.534 18.7685 126.905C17.2724 126.276 15.928 125.335 14.8251 124.145C12.5343 121.722 11.1282 118.598 10.8342 115.277L10.7012 112.659C10.6024 108.781 11.2808 104.923 12.6966 101.312C14.2096 97.8351 16.1753 94.5731 18.5429 91.6107C15.3517 93.0665 12.328 94.8643 9.52497 96.9725C7.02988 98.9936 4.91097 101.439 3.26565 104.196C1.43127 107.178 0.514078 110.825 0.514078 115.137V115.277C0.470167 118.266 1.0396 121.232 2.18721 123.993C3.33483 126.753 5.03626 129.249 7.18648 131.327C9.26206 133.474 11.7554 135.173 14.5128 136.321ZM10.7012 62.3031L16.4774 68.0848L22.2606 62.3031L16.4774 56.3884L10.7012 62.3031ZM80.1908 14.4254V79.9143L46.4787 79.9003V43.18C46.4787 39.3255 48.2454 35.954 51.7788 33.0655C55.8691 29.8033 60.2199 26.8817 64.7875 24.3299C70.0858 21.2903 75.2268 17.9845 80.1908 14.4254ZM105.359 96.8001C105.993 103.955 109.95 107.842 117.233 108.458L117.201 69.4416C117.613 67.2665 118.761 66.175 120.629 66.175H129.241L137.022 54.825H126.732C122.267 54.825 119.101 56.8973 117.233 61.0418V54.825L105.359 62.8847V96.8001ZM181.77 108.458H177.883C175.529 108.508 173.236 107.707 171.424 106.204C169.628 104.74 168.438 102.664 168.084 100.375C167.597 102.711 166.267 104.786 164.347 106.204C162.485 107.671 160.181 108.465 157.809 108.458H154.548C152.988 108.493 151.437 108.207 149.991 107.619C148.545 107.032 147.235 106.155 146.142 105.042C145.039 103.974 144.166 102.692 143.578 101.274C142.99 99.857 142.699 98.3343 142.722 96.8001V90.5675C142.703 87.2546 143.52 83.9904 145.097 81.0762C146.727 78.0906 149.206 75.6548 152.221 74.0764C156.886 71.6931 161.683 69.0777 166.611 66.2303C171.609 63.3144 175.972 59.4284 179.443 54.8013V93.7312C179.443 95.5979 180.585 96.7368 182.87 97.1481H187.849C189.82 97.1481 191.015 96.0091 191.427 93.7312H192.218V97.9311C192.243 99.3075 191.995 100.675 191.488 101.955C190.981 103.235 190.226 104.403 189.266 105.39C188.305 106.402 187.14 107.199 185.847 107.728C184.555 108.257 183.165 108.506 181.77 108.458ZM171.662 51.8748L164.189 44.2502L156.566 51.8748L148.944 44.2502L156.566 36.6335L164.189 44.0999L171.662 36.6335L179.284 44.2502L171.662 51.8748ZM164.189 97.1085C166.057 97.1085 167.2 95.9696 167.617 93.6917V69.1252L161.561 72.7002C156.812 75.3947 154.437 79.2835 154.437 84.3665V93.5335C154.437 95.5029 155.624 96.6973 158.015 97.1085H164.189ZM208.691 108.458H235.446C236.877 108.512 238.303 108.26 239.629 107.718C240.954 107.177 242.149 106.359 243.132 105.318C244.091 104.33 244.845 103.163 245.351 101.883C245.858 100.603 246.107 99.236 246.085 97.8599V93.66H245.293C244.871 95.938 243.678 97.0769 241.715 97.0769H236.736C234.874 97.0769 233.731 95.938 233.309 93.66V86.5416C233.36 83.2999 232.469 80.113 230.744 77.3667C228.872 74.5031 226.47 72.0227 223.668 70.0585C214.744 62.9084 209.61 57.8306 208.264 54.825V27.775L196.557 35.8583V96.3334C196.582 99.5791 197.894 102.682 200.206 104.963C201.306 106.094 202.627 106.988 204.086 107.589C205.546 108.19 207.113 108.486 208.691 108.458ZM221.451 93.5335C221.04 95.9221 219.9 97.1085 218.032 97.1085L211.81 97.1481C209.42 96.7368 208.232 95.5978 208.232 93.7312V60.583C209.583 61.9276 211.267 63.4832 213.282 65.2496C215.413 67.1289 217.296 69.271 218.887 71.6245C220.618 74.1915 221.514 77.23 221.451 80.3248V93.5335ZM255.986 51.8748L248.363 44.0999L255.986 36.4832L263.609 44.0999L255.986 51.8748ZM264.385 108.458H261.297C258.357 108.428 255.542 107.26 253.445 105.2C252.416 104.219 251.603 103.034 251.058 101.721C250.513 100.408 250.247 98.9962 250.279 97.5752V62.8847L262.089 54.825V93.7312C262.501 96.0091 263.64 97.1481 265.509 97.1481H270.646C272.514 97.1481 273.654 96.0091 274.065 93.7312H274.857V97.9311C274.882 99.3075 274.633 100.675 274.127 101.955C273.62 103.235 272.865 104.403 271.904 105.39C270.941 106.405 269.772 107.204 268.475 107.733C267.178 108.262 265.784 108.509 264.385 108.458ZM290.989 108.458H315.416C316.832 108.506 318.242 108.253 319.553 107.717C320.864 107.182 322.046 106.375 323.023 105.35C323.974 104.386 324.724 103.245 325.232 101.991C325.741 100.737 325.996 99.3947 325.984 98.0418V93.6917H325.05C324.633 95.9696 323.49 97.1086 321.622 97.1086H294.4C292.01 96.6973 290.823 95.5029 290.823 93.5335V79.3915C290.833 75.8909 292.229 72.5364 294.705 70.0603C297.182 67.5842 300.538 66.1875 304.042 66.175H307.018L313.081 54.825H303.907C300.657 54.8198 297.438 55.4555 294.434 56.6957C291.43 57.9359 288.7 59.7562 286.401 62.0523C284.103 64.3484 282.28 67.0752 281.038 70.0764C279.796 73.0775 279.159 76.2941 279.163 79.5418V96.6419C279.145 98.1987 279.438 99.7434 280.026 101.185C280.614 102.627 281.485 103.937 282.586 105.038C283.688 106.139 284.999 107.008 286.442 107.596C287.885 108.183 289.431 108.477 290.989 108.458Z" fill="url(#paint0_linear_678_840)"/>
<defs>
<linearGradient id="paint0_linear_678_840" x1="375.5" y1="0.999999" x2="1.00002" y2="147" gradientUnits="userSpaceOnUse">
<stop stop-color="#B54100"/>
<stop offset="0.817708" stop-color="#2C1212"/>
</linearGradient>
</defs>
</svg>
