<svg width="268" height="146" viewBox="0 0 268 146" fill="none" xmlns="http://www.w3.org/2000/svg">
<path d="M51.5325 72.2781L50.0227 74.3722L37.894 56.4227L39.3806 54.3608L60.2429 60.1964L58.7331 62.2905L41.2934 57.2087L41.2005 57.3376L51.5325 72.2781ZM45.6464 66.8593L51.7321 58.4182L53.504 59.6958L47.4184 68.1368L45.6464 66.8593Z" fill="#F4EAC7"/>
<path d="M62.0181 58.4427L60.767 57.1558L57.2051 37.7004L49.2266 45.4573L47.6974 43.8845L57.7921 34.0702L59.0433 35.3571L62.6052 54.8125L70.5837 47.0556L72.1128 48.6284L62.0181 58.4427Z" fill="#F4EAC7"/>
<path d="M73.5881 47.894L72.566 46.4278L72.201 26.7349L63.1104 33.0719L61.8612 31.2798L73.3629 23.2621L74.385 24.7283L74.75 44.4212L83.8405 38.0842L85.0897 39.8763L73.5881 47.894Z" fill="#F4EAC7"/>
<path d="M87.8918 38.5577L85.5452 39.6341L83.8541 18.0371L86.1646 16.9773L101.43 32.3481L99.0832 33.4245L86.4228 20.3983L86.2784 20.4645L87.8918 38.5577ZM85.4464 30.94L94.905 26.6016L95.8158 28.5872L86.3572 32.9256L85.4464 30.94Z" fill="#F4EAC7"/>
<path d="M121.986 12.5489L118.779 28.4906L116.425 28.8601L108.488 14.6674L110.999 14.2733L117.043 25.6272L117.2 25.6025L119.474 12.943L121.986 12.5489Z" fill="#F4EAC7"/>
<path d="M131.596 27.6762C130.63 27.6758 129.752 27.4935 128.965 27.1291C128.177 26.7582 127.552 26.2251 127.089 25.5298C126.626 24.828 126.394 23.9806 126.395 22.9877C126.395 22.1139 126.567 21.4056 126.912 20.8629C127.256 20.3136 127.716 19.8835 128.292 19.5726C128.868 19.2616 129.504 19.0302 130.199 18.8782C130.901 18.7195 131.606 18.594 132.314 18.5016C133.241 18.3828 133.992 18.2937 134.568 18.2343C135.151 18.1683 135.574 18.0592 135.839 17.9071C136.111 17.7549 136.247 17.4902 136.247 17.1128L136.247 17.0334C136.247 16.0537 135.979 15.2923 135.443 14.7493C134.914 14.2063 134.11 13.9347 133.031 13.9343C131.912 13.9339 131.035 14.1785 130.399 14.6681C129.763 15.1578 129.316 15.6806 129.058 16.2365L126.834 15.4414C127.232 14.5148 127.761 13.7934 128.424 13.2773C129.092 12.7546 129.821 12.3908 130.608 12.1858C131.403 11.9743 132.184 11.8687 132.952 11.8689C133.442 11.8691 134.004 11.9289 134.64 12.0482C135.282 12.161 135.901 12.3962 136.496 12.7539C137.099 13.1116 137.598 13.6512 137.995 14.3729C138.392 15.0946 138.59 16.0611 138.59 17.2725L138.586 27.3212L136.243 27.3203L136.244 25.255L136.125 25.255C135.966 25.5859 135.701 25.94 135.33 26.3171C134.959 26.6943 134.466 27.0152 133.85 27.2798C133.234 27.5444 132.483 27.6765 131.596 27.6762ZM131.954 25.5713C132.881 25.5716 133.662 25.3898 134.298 25.026C134.94 24.6621 135.423 24.1923 135.748 23.6165C136.079 23.0407 136.245 22.435 136.245 21.7996L136.246 19.6548C136.146 19.7739 135.928 19.883 135.59 19.9822C135.259 20.0748 134.875 20.1574 134.438 20.2301C134.008 20.2961 133.588 20.3555 133.177 20.4084C132.774 20.4545 132.446 20.4942 132.194 20.5272C131.585 20.6064 131.016 20.7353 130.486 20.9138C129.963 21.0857 129.539 21.3471 129.215 21.6978C128.897 22.0419 128.738 22.5119 128.738 23.1076C128.738 23.9218 129.039 24.5376 129.641 24.9548C130.25 25.3655 131.021 25.5709 131.954 25.5713Z" fill="#F4EAC7"/>
<path d="M167.239 11.857L169.612 12.5134L165.737 26.5242C165.391 27.7747 164.868 28.7735 164.167 29.5205C163.465 30.2675 162.634 30.7519 161.673 30.9738C160.712 31.1956 159.664 31.1495 158.528 30.8354C157.456 30.5389 156.556 30.0805 155.828 29.4602C155.102 28.8335 154.6 28.0903 154.323 27.2306C154.045 26.3709 154.045 25.4402 154.322 24.4385L156.657 25.0844C156.504 25.6394 156.507 26.1623 156.666 26.6529C156.834 27.1388 157.129 27.5637 157.55 27.9275C157.971 28.2913 158.492 28.5588 159.11 28.7299C159.793 28.9187 160.413 28.9358 160.971 28.781C161.529 28.6262 162.009 28.3057 162.412 27.8195C162.822 27.3286 163.14 26.678 163.364 25.8678L167.239 11.857Z" fill="#F4EAC7"/>
<path d="M170.319 34.3288L167.99 33.2149L183.5 18.0912L185.793 19.1879L183.755 40.755L181.426 39.6411L183.33 21.5761L183.187 21.5076L170.319 34.3288ZM174.606 27.5739L183.994 32.0637L183.051 34.0343L173.664 29.5446L174.606 27.5739Z" fill="#F4EAC7"/>
<path d="M186.365 42.6268L198.16 25.9516L200.179 27.3798L189.651 42.2637L197.403 47.7464L196.136 49.5377L186.365 42.6268Z" fill="#F4EAC7"/>
<path d="M197.945 51.6245L211.977 36.9828L213.75 38.682L201.225 51.7508L208.031 58.2732L206.524 59.8461L197.945 51.6245Z" fill="#F4EAC7"/>
<path d="M209.089 62.9891L207.577 60.897L228.431 55.0323L229.92 57.0921L217.817 75.0586L216.304 72.9665L226.615 58.0116L226.522 57.8829L209.089 62.9891ZM216.085 59.107L222.182 67.5395L220.412 68.8195L214.315 60.387L216.085 59.107Z" fill="#F4EAC7"/>
<path d="M267.307 98.9972L267.316 93.877L242.702 98.7653L242.674 119.237L232.825 121.193L232.857 100.721L227.932 101.698L227.905 122.17L218.06 124.126L218.051 129.246L267.28 119.469L267.285 114.353L247.595 118.26L247.617 102.908L267.307 98.9972Z" fill="#F4EAC7"/>
<path d="M188.554 109.516L188.531 124.873L208.221 120.962V126.082L188.531 129.993V135.109L213.132 130.243L213.169 104.655L188.554 109.516ZM208.23 115.846L193.461 118.779V113.659L208.23 110.726V115.846Z" fill="#F4EAC7"/>
<path d="M159.018 115.382L134.404 120.27L134.381 135.622L139.306 134.644L139.319 124.408L154.089 121.48L154.066 136.832L134.376 140.742L134.367 145.858L183.596 136.086L183.601 130.97L158.991 135.854L159.018 115.382Z" fill="#F4EAC7"/>
<path d="M0.0208134 98.7521L0.0253607 93.6318L24.6263 98.5657L24.6172 119.038L34.4622 121.011L34.4713 100.539L39.3914 101.526L39.3824 121.998L49.2227 123.971L49.2182 129.087L0.0117188 119.224L0.0162661 114.104L19.697 118.051L19.7061 102.699L0.0208134 98.7521Z" fill="#F4EAC7"/>
<path d="M78.7572 109.419V124.771L59.0764 120.824V125.944L78.7618 129.891V135.007L54.1562 130.073V104.485L78.7572 109.419ZM59.0673 115.69L73.8325 118.65V113.548L59.0719 110.588L59.0673 115.69Z" fill="#F4EAC7"/>
<path d="M108.283 115.335L132.884 120.269L132.875 135.625L127.955 134.638L127.959 124.402L113.199 121.442L113.19 136.798L132.875 140.741L132.871 145.861L83.6641 135.993L83.6686 130.878L108.27 135.812L108.283 115.335Z" fill="#F4EAC7"/>
<path d="M133.647 114.64L0.00195312 88.2879V78.252C41.046 81.2668 133.647 113.121 133.647 113.121C133.647 113.121 133.643 114.239 133.647 114.64Z" fill="#F4EAC7"/>
<path d="M133.647 114.64L267.288 88.2879V78.252C226.248 81.2668 133.647 113.121 133.647 113.121C133.61 113.626 133.61 114.134 133.647 114.64Z" fill="#F4EAC7"/>
</svg>
