<svg width="90" height="50" viewBox="0 0 90 50" fill="none" xmlns="http://www.w3.org/2000/svg">
<path d="M17.2736 24.6525L16.7654 25.3574L12.6829 19.3156L13.1833 18.6216L20.2055 20.5858L19.6973 21.2907L13.8272 19.5802L13.7959 19.6236L17.2736 24.6525ZM15.2924 22.8286L17.3408 19.9873L17.9372 20.4173L15.8888 23.2586L15.2924 22.8286Z" fill="#2C1212"/>
<path d="M20.8123 19.984L20.3912 19.5508L19.1923 13.0022L16.5067 15.6131L15.992 15.0837L19.3899 11.7803L19.811 12.2134L21.0099 18.7621L23.6955 16.1511L24.2102 16.6805L20.8123 19.984Z" fill="#2C1212"/>
<path d="M24.7184 16.4238L24.3744 15.9303L24.2515 9.30172L21.1916 11.4347L20.7712 10.8315L24.6426 8.13278L24.9866 8.6263L25.1095 15.2549L28.1693 13.1219L28.5898 13.7251L24.7184 16.4238Z" fill="#2C1212"/>
<path d="M29.546 13.2733L28.7561 13.6356L28.1869 6.36613L28.9646 6.00942L34.1028 11.1832L33.313 11.5455L29.0515 7.16091L29.0029 7.18321L29.546 13.2733ZM28.7229 10.7092L31.9066 9.24893L32.2132 9.91727L29.0294 11.3776L28.7229 10.7092Z" fill="#2C1212"/>
<path d="M41.0457 4.51242L39.9663 9.87836L39.1738 10.0027L36.5024 5.2255L37.3477 5.09284L39.382 8.91453L39.4348 8.90624L40.2004 4.64509L41.0457 4.51242Z" fill="#2C1212"/>
<path d="M44.2939 9.60273C43.9686 9.60261 43.6734 9.54124 43.4083 9.4186C43.1431 9.29373 42.9326 9.11429 42.7768 8.88028C42.6209 8.64404 42.543 8.3588 42.5431 8.02458C42.5432 7.73046 42.6012 7.49207 42.7171 7.3094C42.8331 7.12451 42.988 6.97973 43.1819 6.87508C43.3758 6.77042 43.5897 6.69251 43.8237 6.64134C44.0599 6.58795 44.2972 6.5457 44.5356 6.51459C44.8476 6.47459 45.1005 6.4446 45.2943 6.42461C45.4904 6.4024 45.633 6.36568 45.7222 6.31447C45.8135 6.26325 45.8592 6.17414 45.8593 6.04714L45.8593 6.0204C45.8594 5.69063 45.7693 5.43436 45.5888 5.25159C45.4107 5.06882 45.14 4.97737 44.7768 4.97724C44.4002 4.97711 44.105 5.05945 43.891 5.22426C43.677 5.38907 43.5266 5.56504 43.4396 5.75217L42.691 5.48453C42.8248 5.17264 43.0032 4.92983 43.2261 4.75611C43.4512 4.58017 43.6963 4.4577 43.9615 4.38872C44.2289 4.31752 44.4918 4.28196 44.7503 4.28205C44.9152 4.28211 45.1046 4.30223 45.3184 4.34241C45.5346 4.38036 45.7429 4.45953 45.9434 4.57992C46.1461 4.70031 46.3142 4.88197 46.4478 5.12488C46.5815 5.3678 46.6482 5.69313 46.648 6.10089L46.6469 9.48323L45.8581 9.48295L45.8583 8.78777L45.8182 8.78775C45.7647 8.89914 45.6755 9.01832 45.5507 9.14528C45.4259 9.27224 45.2599 9.38025 45.0526 9.4693C44.8454 9.55836 44.5925 9.60283 44.2939 9.60273ZM44.4145 8.89422C44.7264 8.89432 44.9893 8.83314 45.2033 8.71067C45.4195 8.5882 45.5822 8.43005 45.6914 8.23624C45.8029 8.04243 45.8587 7.83857 45.8587 7.62467L45.859 6.90275C45.8256 6.94284 45.752 6.97958 45.6384 7.01296C45.5269 7.04412 45.3977 7.07193 45.2506 7.09638C45.1058 7.11862 44.9643 7.13862 44.8262 7.1564C44.6902 7.17195 44.5799 7.18528 44.4953 7.19639C44.2903 7.22305 44.0986 7.26644 43.9203 7.32653C43.7443 7.38441 43.6017 7.47237 43.4924 7.59042C43.3855 7.70625 43.3319 7.86443 43.3319 8.06496C43.3318 8.33903 43.4331 8.54628 43.6358 8.68673C43.8407 8.82494 44.1003 8.89411 44.4145 8.89422Z" fill="#2C1212"/>
<path d="M56.3144 4.28098L57.1132 4.50193L55.8089 9.21792C55.6925 9.63883 55.5163 9.97502 55.2803 10.2265C55.0443 10.4779 54.7646 10.641 54.4411 10.7156C54.1176 10.7903 53.7647 10.7748 53.3824 10.6691C53.0217 10.5693 52.7187 10.415 52.4736 10.2062C52.2291 9.99521 52.0602 9.74505 51.9668 9.45569C51.8735 9.16632 51.8734 8.85306 51.9667 8.5159L52.7527 8.73328C52.701 8.92012 52.702 9.0961 52.7558 9.26123C52.8123 9.42481 52.9114 9.56782 53.0532 9.69027C53.1951 9.81272 53.3701 9.90276 53.5784 9.96037C53.8082 10.0239 54.017 10.0297 54.2048 9.97756C54.3926 9.92547 54.5542 9.81758 54.6896 9.65391C54.8278 9.48869 54.9346 9.26971 55.01 8.99697L56.3144 4.28098Z" fill="#2C1212"/>
<path d="M57.366 11.8512L56.582 11.4763L61.8027 6.38566L62.5746 6.75482L61.8887 14.0142L61.1047 13.6393L61.7455 7.55868L61.6973 7.53561L57.366 11.8512ZM58.809 9.57751L61.9689 11.0888L61.6517 11.7521L58.4918 10.2408L58.809 9.57751Z" fill="#2C1212"/>
<path d="M62.7813 14.6512L66.7514 9.03833L67.431 9.51908L63.8875 14.529L66.4966 16.3744L66.0701 16.9773L62.7813 14.6512Z" fill="#2C1212"/>
<path d="M66.688 17.6883L71.411 12.7599L72.0078 13.3319L67.7921 17.7308L70.083 19.9262L69.5757 20.4556L66.688 17.6883Z" fill="#2C1212"/>
<path d="M70.4488 21.5258L69.9397 20.8216L76.9591 18.8475L77.4605 19.5409L73.3864 25.5883L72.8772 24.8842L76.3479 19.8504L76.3166 19.8071L70.4488 21.5258ZM72.8035 20.2191L74.8559 23.0575L74.2601 23.4883L72.2077 20.6499L72.8035 20.2191Z" fill="#2C1212"/>
<path d="M89.9741 33.6974L89.9772 31.974L81.692 33.6194L81.6828 40.5102L78.3675 41.1684L78.3782 34.2775L76.7205 34.6066L76.7114 41.4974L73.3976 42.1556L73.3945 43.8791L89.9649 40.5883L89.9665 38.8663L83.3389 40.1811L83.3466 35.0138L89.9741 33.6974Z" fill="#2C1212"/>
<path d="M63.4647 37.2378L63.457 42.4066L70.0846 41.0903V42.8138L63.457 44.1301V45.852L71.7376 44.2143L71.7499 35.6015L63.4647 37.2378ZM70.0876 39.3684L65.1162 40.3556V38.6321L70.0876 37.6449V39.3684Z" fill="#2C1212"/>
<path d="M53.524 39.2122L45.2388 40.8576L45.2312 46.025L46.8888 45.6959L46.8934 42.2505L51.8648 41.2648L51.8572 46.4321L45.2296 47.7484L45.2266 49.4704L61.797 46.1811L61.7985 44.4592L53.5148 46.103L53.524 39.2122Z" fill="#2C1212"/>
<path d="M0.00696747 33.6148L0.00849809 31.8913L8.28911 33.552L8.28605 40.4429L11.5998 41.1071L11.6029 34.2163L13.259 34.5485L13.2559 41.4393L16.5682 42.1036L16.5667 43.8255L0.00390625 40.5056L0.00543686 38.7821L6.62993 40.1107L6.63299 34.9434L0.00696747 33.6148Z" fill="#2C1212"/>
<path d="M26.5091 37.2056V42.373L19.8846 41.0444V42.7679L26.5107 44.0964V45.8184L18.2285 44.1576V35.5449L26.5091 37.2056ZM19.8816 39.3163L24.8515 40.3128V38.5954L19.8831 37.599L19.8816 39.3163Z" fill="#2C1212"/>
<path d="M36.4469 39.1969L44.7275 40.8576L44.7244 46.0265L43.0683 45.6944L43.0699 42.249L38.1015 41.2525L38.0984 46.4214L44.7244 47.7485L44.7229 49.4719L28.1602 46.1505L28.1617 44.4286L36.4423 46.0893L36.4469 39.1969Z" fill="#2C1212"/>
<path d="M44.9847 38.9627L0 30.0928V26.7148C13.8153 27.7296 44.9847 38.4515 44.9847 38.4515C44.9847 38.4515 44.9832 38.828 44.9847 38.9627Z" fill="#2C1212"/>
<path d="M44.9839 38.9627L89.967 30.0928V26.7148C76.1533 27.7296 44.9839 38.4515 44.9839 38.4515C44.9715 38.6217 44.9715 38.7926 44.9839 38.9627Z" fill="#2C1212"/>
</svg>
